<?xml version="1.0" standalone="no"?>
<!DOCTYPE svg PUBLIC "-//W3C//DTD SVG 1.0//EN" "http://www.w3.org/TR/2001/REC-SVG-20010904/DTD/svg10.dtd">
<svg xmlns="http://www.w3.org/2000/svg" xmlns:xlink="http://www.w3.org/1999/xlink" id="body_1" width="118" height="56">

<g transform="matrix(0.7468355 0 0 0.7468355 -0 4.474683)">
    <path d="M21.208 40.028C 22.5573 40.732 23.6133 41.7 24.376 42.932C 25.1387 44.164 25.52 45.5867 25.52 47.2C 25.52 49.7227 24.6253 51.82 22.836 53.492C 21.0467 55.164 18.8613 56 16.28 56L16.28 56L3.08 56L3.08 25.2L15.312 25.2C 17.8347 25.2 19.9613 26.0213 21.692 27.664C 23.452 29.2773 24.332 31.3013 24.332 33.736C 24.332 36.4053 23.2907 38.5027 21.208 40.028zM15.312 29.952L8.14 29.952L8.14 38.048L15.312 38.048C 16.4267 38.048 17.3653 37.6667 18.128 36.904C 18.8907 36.112 19.272 35.144 19.272 34C 19.272 32.856 18.8907 31.9027 18.128 31.14C 17.3653 30.348 16.4267 29.952 15.312 29.952zM16.28 51.248C 17.4533 51.248 18.436 50.8373 19.228 50.016C 20.0493 49.1653 20.46 48.1387 20.46 46.936C 20.46 45.7333 20.0493 44.7213 19.228 43.9C 18.436 43.0493 17.4533 42.624 16.28 42.624L16.28 42.624L8.14 42.624L8.14 51.248L16.28 51.248zM44.8852 34L49.6372 34L49.6372 56L44.8852 56L44.8852 53.184C 43.4478 55.4427 41.1745 56.572 38.0652 56.572C 35.5425 56.572 33.5038 55.7653 31.9492 54.152C 30.3945 52.5387 29.6172 50.324 29.6172 47.508L29.6172 47.508L29.6172 34L34.3692 34L34.3692 47.024C 34.3692 48.6667 34.8092 49.928 35.6892 50.808C 36.5692 51.688 37.7718 52.128 39.2972 52.128C 40.9692 52.128 42.3185 51.6147 43.3452 50.588C 44.3718 49.532 44.8852 47.9333 44.8852 45.792L44.8852 45.792L44.8852 34zM59.6819 29.82C 59.0952 30.4067 58.3912 30.7 57.5699 30.7C 56.7485 30.7 56.0299 30.4067 55.4139 29.82C 54.8272 29.204 54.5339 28.4853 54.5339 27.664C 54.5339 26.8427 54.8272 26.1387 55.4139 25.552C 56.0005 24.936 56.7192 24.628 57.5699 24.628C 58.4205 24.628 59.1392 24.936 59.7259 25.552C 60.3125 26.1387 60.6059 26.8427 60.6059 27.664C 60.6059 28.4853 60.2979 29.204 59.6819 29.82zM55.1939 56L55.1939 34L59.9459 34L59.9459 56L55.1939 56zM82.8874 25.2L87.6394 25.2L87.6394 56L82.8874 56L82.8874 52.832C 81.0981 55.3253 78.5314 56.572 75.1874 56.572C 72.1661 56.572 69.5847 55.4573 67.4434 53.228C 65.3021 50.9693 64.2314 48.2267 64.2314 45C 64.2314 41.744 65.3021 39.0013 67.4434 36.772C 69.5847 34.5427 72.1661 33.428 75.1874 33.428C 78.5314 33.428 81.0981 34.66 82.8874 37.124L82.8874 37.124L82.8874 25.2zM70.9634 50.06C 72.2834 51.38 73.9407 52.04 75.9354 52.04C 77.9301 52.04 79.5874 51.38 80.9074 50.06C 82.2274 48.7107 82.8874 47.024 82.8874 45C 82.8874 42.976 82.2274 41.304 80.9074 39.984C 79.5874 38.6347 77.9301 37.96 75.9354 37.96C 73.9407 37.96 72.2834 38.6347 70.9634 39.984C 69.6434 41.304 68.9834 42.976 68.9834 45C 68.9834 47.024 69.6434 48.7107 70.9634 50.06zM93.1783 56L93.1783 23.88L97.9303 23.88L97.9303 56L93.1783 56zM108.64 55.56C 107.994 56.2053 107.217 56.528 106.308 56.528C 105.398 56.528 104.621 56.2053 103.976 55.56C 103.33 54.9147 103.008 54.1373 103.008 53.228C 103.008 52.3187 103.316 51.5413 103.932 50.896C 104.577 50.2507 105.369 49.928 106.308 49.928C 107.217 49.928 107.994 50.2507 108.64 50.896C 109.285 51.5413 109.608 52.3187 109.608 53.228C 109.608 54.1373 109.285 54.9147 108.64 55.56zM118.931 40.072C 118.931 40.8053 119.327 41.392 120.119 41.832C 120.94 42.2427 121.923 42.6093 123.067 42.932C 124.24 43.2253 125.413 43.5773 126.587 43.988C 127.76 44.3987 128.743 45.1027 129.535 46.1C 130.356 47.068 130.767 48.3 130.767 49.796C 130.767 51.908 129.945 53.5653 128.303 54.768C 126.689 55.9707 124.651 56.572 122.187 56.572C 120.016 56.572 118.153 56.1173 116.599 55.208C 115.044 54.2987 113.915 53.0373 113.211 51.424L113.211 51.424L117.303 49.048C 118.065 51.16 119.693 52.216 122.187 52.216C 124.68 52.216 125.927 51.3947 125.927 49.752C 125.927 49.048 125.516 48.476 124.695 48.036C 123.903 47.596 122.92 47.2293 121.747 46.936C 120.603 46.6133 119.444 46.2467 118.271 45.836C 117.097 45.4253 116.1 44.7507 115.279 43.812C 114.487 42.844 114.091 41.6267 114.091 40.16C 114.091 38.136 114.853 36.508 116.379 35.276C 117.933 34.044 119.855 33.428 122.143 33.428C 123.961 33.428 125.575 33.8387 126.983 34.66C 128.42 35.452 129.52 36.5667 130.283 38.004L130.283 38.004L126.279 40.248C 125.516 38.576 124.137 37.74 122.143 37.74C 121.233 37.74 120.471 37.9453 119.855 38.356C 119.239 38.7373 118.931 39.3093 118.931 40.072zM144.769 56.572C 141.543 56.572 138.8 55.4573 136.541 53.228C 134.283 50.9987 133.153 48.256 133.153 45C 133.153 41.744 134.283 39.0013 136.541 36.772C 138.8 34.5427 141.543 33.428 144.769 33.428C 148.025 33.428 150.768 34.5427 152.997 36.772C 155.256 39.0013 156.385 41.744 156.385 45C 156.385 48.256 155.256 50.9987 152.997 53.228C 150.768 55.4573 148.025 56.572 144.769 56.572zM139.885 49.972C 141.205 51.292 142.833 51.952 144.769 51.952C 146.705 51.952 148.333 51.292 149.653 49.972C 150.973 48.652 151.633 46.9947 151.633 45C 151.633 43.0053 150.973 41.348 149.653 40.028C 148.333 38.708 146.705 38.048 144.769 38.048C 142.833 38.048 141.205 38.708 139.885 40.028C 138.565 41.348 137.905 43.0053 137.905 45C 137.905 46.9947 138.565 48.652 139.885 49.972z" stroke="none" fill="#000000" fill-rule="nonzero" />
    <path d="M0 4C 0 1.790861 1.790861 0 4 0L4 0L38 0C 40.20914 0 42 1.790861 42 4L42 4L42 13C 42 15.209139 40.20914 17 38 17L38 17L4 17C 1.790861 17 0 15.209139 0 13L0 13L0 4z" stroke="none" fill="#572EF8" fill-rule="nonzero" fill-opacity="0.8" />
    <path d="M11.2323 12L10.1384 12L9.50862 10.2653L6.0282 10.2653L5.39841 12L4.30456 12L7.18834 4.26573L8.34848 4.26573L11.2323 12zM7.76288 5.49217L6.38176 9.30406L9.15505 9.30406L7.76288 5.49217zM13.1722 4.26573L13.1722 11.0277L16.509 11.0277L16.509 12L12.1447 12L12.1447 4.26573L13.1722 4.26573zM17.5396 4.26573L20.3461 4.26573C 21.0532 4.26573 21.6462 4.50513 22.125 4.98392C 22.6038 5.4627 22.8431 6.05198 22.8431 6.75175C 22.8431 7.45151 22.6038 8.04079 22.125 8.51958C 21.6462 8.99837 21.0532 9.23776 20.3461 9.23776L20.3461 9.23776L18.5672 9.23776L18.5672 12L17.5396 12L17.5396 4.26573zM18.5672 8.2765L20.3461 8.2765C 20.7807 8.2765 21.1342 8.13287 21.4068 7.84559C 21.6867 7.54359 21.8266 7.17897 21.8266 6.75175C 21.8266 6.30979 21.6867 5.94517 21.4068 5.6579C 21.1269 5.37063 20.7733 5.22699 20.3461 5.22699L20.3461 5.22699L18.5672 5.22699L18.5672 8.2765zM28.841 7.54727L28.841 4.26573L29.8575 4.26573L29.8575 12L28.841 12L28.841 8.51958L25.0844 8.51958L25.0844 12L24.0568 12L24.0568 4.26573L25.0844 4.26573L25.0844 7.54727L28.841 7.54727zM37.7001 12L36.6063 12L35.9765 10.2653L32.496 10.2653L31.8663 12L30.7724 12L33.6562 4.26573L34.8163 4.26573L37.7001 12zM34.2307 5.49217L32.8496 9.30406L35.6229 9.30406L34.2307 5.49217z" stroke="none" fill="#FFFFFF" fill-rule="nonzero" />
</g>
</svg>